# xmcd
#
# Track frame offsets:
# 150
# 13231
# 24693
# 40878
# 55249
# 69371
# 80793
# 100559
# 113596
# 130023
# 147272
# 162076
# 175773
# 190947
#
# Disc length: 2697 seconds
#
#
# Revision: 0
# Processed by: cddbd v1.5.2PL0 Copyright (c) Steve Scherf et al.
# Submitted via: Nero 7, 11, 10, 0 
#
DISCID=b40a870e
DTITLE=Pacemaker and The Blue Vanguards - Tales From The Basin
DYEAR=1900
DGENRE=Blues
TTITLE0=Mean What I Say
TTITLE1=My Love
TTITLE2=I Got To Know
TTITLE3=M.T.A. Line
TTITLE4=Something Like Lightning
TTITLE5=Spooky Eyes
TTITLE6=Fool's Heartbeat
TTITLE7=Kind Of A King Thing
TTITLE8=I Grieve
TTITLE9=No C. On Thurs Swing
TTITLE10=Rocketship
TTITLE11=What Do You Know About Love
TTITLE12=You Made Me Cry
TTITLE13=So Sad
EXTD=
EXTT0=Mean What I Say
EXTT1=My Love
EXTT2=I Got To Know
EXTT3=M.T.A. Line
EXTT4=Something Like Lightning
EXTT5=Spooky Eyes
EXTT6=Fool's Heartbeat
EXTT7=Kind Of A King Thing
EXTT8=I Grieve
EXTT9=No C. On Thurs Swing
EXTT10=Rocketship
EXTT11=What Do You Know About Love
EXTT12=You Made Me Cry
EXTT13=So Sad
PLAYORDER=
